<svg width="176" height="33" viewBox="0 0 176 33" fill="none" xmlns="http://www.w3.org/2000/svg">
<g clip-path="url(#clip0_911_5460)">
<path fill-rule="evenodd" clip-rule="evenodd" d="M0 16.4004C0 7.56384 7.16344 0.400391 16 0.400391C24.8366 0.400391 32 7.56384 32 16.4004C32 25.2369 24.8366 32.4004 16 32.4004C7.16344 32.4004 0 25.2369 0 16.4004Z" fill="#E5F4F2"/>
<path fill-rule="evenodd" clip-rule="evenodd" d="M16.0008 7.86719C13.6833 7.86719 13.3924 7.87732 12.4822 7.91874C11.5737 7.96034 10.9536 8.10417 10.4111 8.31519C9.84981 8.53315 9.37372 8.82471 8.8994 9.2992C8.42473 9.77352 8.13317 10.2496 7.9145 10.8107C7.70294 11.3534 7.55894 11.9737 7.51805 12.8818C7.47734 13.792 7.46667 14.0831 7.46667 16.4006C7.46667 18.7181 7.47699 19.0081 7.51823 19.9183C7.56001 20.8268 7.70383 21.4469 7.91468 21.9895C8.13282 22.5507 8.42437 23.0268 8.89887 23.5011C9.37301 23.9758 9.8491 24.2681 10.41 24.486C10.9529 24.6971 11.5732 24.8409 12.4815 24.8825C13.3917 24.9239 13.6824 24.934 15.9997 24.934C18.3175 24.934 18.6074 24.9239 19.5176 24.8825C20.4261 24.8409 21.0469 24.6971 21.5898 24.486C22.1509 24.2681 22.6263 23.9758 23.1004 23.5011C23.5751 23.0268 23.8667 22.5507 24.0853 21.9896C24.2951 21.4469 24.4391 20.8266 24.4818 19.9185C24.5227 19.0083 24.5333 18.7181 24.5333 16.4006C24.5333 14.0831 24.5227 13.7922 24.4818 12.882C24.4391 11.9735 24.2951 11.3534 24.0853 10.8109C23.8667 10.2496 23.5751 9.77352 23.1004 9.2992C22.6258 8.82453 22.1511 8.53297 21.5893 8.31519C21.0453 8.10417 20.4249 7.96034 19.5164 7.91874C18.6062 7.87732 18.3164 7.86719 15.9981 7.86719H16.0008ZM15.2353 9.40496C15.4625 9.4046 15.716 9.40496 16.0008 9.40496C18.2792 9.40496 18.5492 9.41314 19.449 9.45402C20.281 9.49207 20.7326 9.63109 21.0334 9.74789C21.4316 9.90256 21.7155 10.0875 22.014 10.3861C22.3127 10.6848 22.4976 10.9692 22.6526 11.3675C22.7694 11.6679 22.9086 12.1195 22.9464 12.9515C22.9873 13.851 22.9962 14.1213 22.9962 16.3986C22.9962 18.676 22.9873 18.9462 22.9464 19.8458C22.9084 20.6778 22.7694 21.1293 22.6526 21.4298C22.4979 21.828 22.3127 22.1116 22.014 22.4101C21.7153 22.7087 21.4318 22.8936 21.0334 23.0483C20.7329 23.1656 20.281 23.3043 19.449 23.3423C18.5494 23.3832 18.2792 23.3921 16.0008 23.3921C13.7222 23.3921 13.4521 23.3832 12.5526 23.3423C11.7205 23.3039 11.269 23.1649 10.968 23.0481C10.5698 22.8935 10.2853 22.7086 9.98666 22.4099C9.68799 22.1112 9.5031 21.8275 9.34808 21.4291C9.23128 21.1286 9.09208 20.6771 9.05421 19.8451C9.01332 18.9455 9.00514 18.6753 9.00514 16.3965C9.00514 14.1177 9.01332 13.8489 9.05421 12.9493C9.09226 12.1173 9.23128 11.6658 9.34808 11.365C9.50275 10.9668 9.68799 10.6823 9.98666 10.3836C10.2853 10.085 10.5698 9.90007 10.968 9.74505C11.2688 9.62772 11.7205 9.48905 12.5526 9.45082C13.3398 9.41527 13.6448 9.4046 15.2353 9.40282V9.40496ZM20.5558 10.8219C19.9905 10.8219 19.5318 11.28 19.5318 11.8455C19.5318 12.4109 19.9905 12.8695 20.5558 12.8695C21.1212 12.8695 21.5799 12.4109 21.5799 11.8455C21.5799 11.2802 21.1212 10.8219 20.5558 10.8219ZM16.0008 12.0183C13.5807 12.0183 11.6186 13.9805 11.6186 16.4006C11.6186 18.8207 13.5807 20.782 16.0008 20.782C18.4209 20.782 20.3824 18.8207 20.3824 16.4006C20.3824 13.9805 18.4209 12.0183 16.0008 12.0183ZM16.0008 13.5561C17.5717 13.5561 18.8453 14.8295 18.8453 16.4006C18.8453 17.9714 17.5717 19.2451 16.0008 19.2451C14.4298 19.2451 13.1563 17.9714 13.1563 16.4006C13.1563 14.8295 14.4298 13.5561 16.0008 13.5561Z" fill="#2D2D2D"/>
<path fill-rule="evenodd" clip-rule="evenodd" d="M48 16.4004C48 7.56384 55.1634 0.400391 64 0.400391C72.8366 0.400391 80 7.56384 80 16.4004C80 25.2369 72.8366 32.4004 64 32.4004C55.1634 32.4004 48 25.2369 48 16.4004Z" fill="#E5F4F2"/>
<path fill-rule="evenodd" clip-rule="evenodd" d="M72.5333 16.3887C72.5333 16.9658 72.4746 17.5421 72.3592 18.1038C72.2467 18.6522 72.08 19.1906 71.8617 19.7053C71.6483 20.2109 71.3837 20.6981 71.0745 21.1525C70.77 21.604 70.4191 22.0275 70.0337 22.4137C69.6474 22.7981 69.2224 23.148 68.7711 23.4539C68.3152 23.7609 67.8273 24.0251 67.3215 24.2394C66.806 24.4566 66.2664 24.6231 65.7184 24.7354C65.1559 24.8511 64.5776 24.9102 63.9996 24.9102C63.4213 24.9102 62.8429 24.8511 62.2812 24.7354C61.7324 24.6231 61.1928 24.4566 60.6778 24.2394C60.1719 24.0251 59.6836 23.7609 59.2277 23.4539C58.7764 23.148 58.3514 22.7981 57.966 22.4137C57.5801 22.0275 57.2293 21.604 56.9243 21.1525C56.6167 20.6981 56.3517 20.2109 56.1376 19.7053C55.9192 19.1906 55.7521 18.6522 55.6392 18.1038C55.525 17.5421 55.4667 16.9658 55.4667 16.3887C55.4667 15.8112 55.525 15.2336 55.6392 14.6731C55.7521 14.1247 55.9192 13.5855 56.1376 13.0716C56.3518 12.5657 56.6168 12.078 56.9243 11.6236C57.2293 11.1718 57.5802 10.749 57.966 10.3625C58.3515 9.97798 58.7765 9.62891 59.2278 9.32351C59.6836 9.01517 60.172 8.75099 60.6778 8.53626C61.1929 8.31861 61.7324 8.15178 62.2812 8.04029C62.8429 7.92545 63.4213 7.86719 63.9997 7.86719C64.5776 7.86719 65.1559 7.92545 65.7185 8.04029C66.2664 8.15181 66.806 8.31864 67.3215 8.53626C67.8273 8.75095 68.3153 9.01517 68.7711 9.32351C69.2224 9.62891 69.6475 9.97798 70.0337 10.3625C70.4191 10.749 70.77 11.1718 71.0746 11.6236C71.3837 12.078 71.6483 12.5657 71.8617 13.0716C72.08 13.5855 72.2467 14.1247 72.3592 14.6731C72.4746 15.2336 72.5333 15.8112 72.5333 16.3887ZM60.8903 9.80657C58.8581 10.7648 57.3413 12.6347 56.8684 14.8883C57.0605 14.8899 60.0973 14.9282 63.5962 13.9999C62.3349 11.7622 60.9874 9.93601 60.8903 9.80657ZM64.2 15.1205C60.4477 16.2422 56.8471 16.1615 56.718 16.1565C56.7159 16.2347 56.7121 16.3104 56.7121 16.3887C56.7121 18.2581 57.4184 19.9624 58.5793 21.2511C58.5768 21.2473 60.5711 17.7143 64.5038 16.4444C64.5988 16.4128 64.6955 16.3845 64.7913 16.3571C64.6084 15.9435 64.4087 15.5291 64.2 15.1205ZM68.8124 10.9271C67.5293 9.7974 65.8447 9.11215 63.9996 9.11215C63.4075 9.11215 62.8329 9.18372 62.2824 9.31603C62.3916 9.46251 63.7604 11.2758 65.0067 13.5609C67.7565 12.5315 68.7944 10.9537 68.8124 10.9271ZM65.288 17.5629C65.2718 17.5683 65.2556 17.5729 65.2397 17.5787C60.94 19.0755 59.5358 22.0919 59.5206 22.1249C60.7578 23.0856 62.3096 23.6652 63.9996 23.6652C65.0088 23.6652 65.9701 23.46 66.8448 23.0885C66.7368 22.4527 66.3135 20.2242 65.288 17.5629ZM68.0719 22.4236C69.7082 21.321 70.8703 19.5701 71.1945 17.542C71.0445 17.4938 69.0057 16.8492 66.6535 17.2258C67.6093 19.8489 67.9977 21.9851 68.0719 22.4236ZM65.5676 14.6453C65.7368 14.9923 65.9006 15.3455 66.0518 15.7005C66.1056 15.8278 66.1581 15.9526 66.2093 16.0774C68.7128 15.7629 71.1792 16.2921 71.2846 16.3137C71.2679 14.5887 70.65 13.0054 69.6275 11.7659C69.6137 11.7855 68.4449 13.4719 65.5676 14.6453Z" fill="#2D2D2D"/>
<path fill-rule="evenodd" clip-rule="evenodd" d="M96 16.4004C96 7.56384 103.163 0.400391 112 0.400391C120.837 0.400391 128 7.56384 128 16.4004C128 25.2369 120.837 32.4004 112 32.4004C103.163 32.4004 96 25.2369 96 16.4004Z" fill="#E5F4F2"/>
<path fill-rule="evenodd" clip-rule="evenodd" d="M114.372 12.8468H118.892V11.5519H114.372V12.8468ZM115.443 15.6721C115.155 15.9651 114.973 16.3621 114.899 16.863H118.414C118.377 16.3284 118.194 15.9245 117.871 15.6464C117.544 15.3702 117.142 15.2326 116.66 15.2326C116.138 15.2326 115.731 15.3791 115.443 15.6721ZM118.493 13.9338C119.038 14.1733 119.487 14.5535 119.84 15.0722C120.162 15.5296 120.369 16.0602 120.463 16.6631C120.518 17.0155 120.54 17.5263 120.531 18.1905H114.849C114.883 18.9617 115.152 19.5032 115.666 19.8131C115.977 20.0061 116.351 20.1031 116.79 20.1031C117.253 20.1031 117.631 19.9853 117.921 19.7507C118.081 19.623 118.221 19.4468 118.342 19.2211H120.424C120.369 19.6764 120.116 20.1407 119.668 20.6119C118.97 21.3594 117.992 21.7336 116.734 21.7336C115.696 21.7336 114.78 21.4188 113.988 20.7872C113.192 20.1566 112.797 19.129 112.797 17.7074C112.797 16.374 113.155 15.3514 113.87 14.6396C114.588 13.9298 115.516 13.5724 116.659 13.5724C117.338 13.5724 117.949 13.6932 118.493 13.9338ZM105.569 16.8907V19.6656H108.13C108.587 19.6656 108.944 19.6042 109.198 19.4824C109.661 19.2547 109.892 18.8231 109.892 18.1836C109.892 17.6411 109.669 17.2699 109.22 17.0669C108.97 16.9541 108.617 16.8947 108.166 16.8907H105.569ZM105.569 12.8735V15.1692H108.134C108.59 15.1692 108.963 15.0831 109.25 14.9108C109.535 14.7386 109.678 14.4337 109.678 13.9981C109.678 13.512 109.489 13.1923 109.112 13.0359C108.785 12.928 108.37 12.8735 107.865 12.8735H105.569ZM111.297 12.1756C111.619 12.6181 111.78 13.1468 111.78 13.7635C111.78 14.3981 111.619 14.9099 111.293 15.2959C111.11 15.5118 110.842 15.7097 110.488 15.8879C111.026 16.082 111.431 16.3879 111.707 16.8066C111.98 17.2244 112.117 17.7332 112.117 18.3311C112.117 18.9479 111.961 19.5012 111.647 19.9903C111.448 20.314 111.199 20.5872 110.9 20.809C110.564 21.0634 110.168 21.2366 109.709 21.3316C109.251 21.4257 108.755 21.4712 108.219 21.4712H103.467V11.0669H108.563C109.85 11.0857 110.76 11.455 111.297 12.1756Z" fill="#2D2D2D"/>
<path fill-rule="evenodd" clip-rule="evenodd" d="M144 16.4004C144 7.56384 151.163 0.400391 160 0.400391C168.837 0.400391 176 7.56384 176 16.4004C176 25.2369 168.837 32.4004 160 32.4004C151.163 32.4004 144 25.2369 144 16.4004Z" fill="#E5F4F2"/>
<path fill-rule="evenodd" clip-rule="evenodd" d="M159.521 13.4055L159.554 13.9591L158.995 13.8913C156.958 13.6315 155.178 12.7502 153.668 11.27L152.929 10.5356L152.739 11.078C152.336 12.2869 152.593 13.5637 153.433 14.4224C153.88 14.8969 153.779 14.9647 153.007 14.6822C152.739 14.5919 152.504 14.5241 152.481 14.558C152.403 14.637 152.672 15.6652 152.884 16.072C153.175 16.6369 153.768 17.1906 154.417 17.5182L154.966 17.7781L154.317 17.7894C153.69 17.7894 153.668 17.8007 153.735 18.038C153.959 18.7724 154.843 19.552 155.828 19.8909L156.521 20.1282L155.917 20.4898C155.022 21.0095 153.97 21.3033 152.918 21.3259C152.414 21.3372 152 21.3824 152 21.4163C152 21.5293 153.365 22.162 154.16 22.4105C156.544 23.145 159.375 22.8286 161.502 21.5744C163.013 20.6818 164.523 18.908 165.229 17.1906C165.609 16.2754 165.99 14.6032 165.99 13.8009C165.99 13.2812 166.023 13.2134 166.65 12.592C167.019 12.2304 167.366 11.835 167.433 11.722C167.545 11.5073 167.534 11.5073 166.963 11.6994C166.012 12.0383 165.878 11.9932 166.348 11.4847C166.695 11.1232 167.109 10.4678 167.109 10.2757C167.109 10.2419 166.941 10.2983 166.751 10.4C166.549 10.513 166.102 10.6825 165.766 10.7842L165.161 10.9763L164.613 10.6034C164.311 10.4 163.886 10.1741 163.662 10.1063C163.091 9.94809 162.218 9.97069 161.703 10.1515C160.304 10.6599 159.42 11.9706 159.521 13.4055Z" fill="#2D2D2D"/>
</g>
<defs>
<clipPath id="clip0_911_5460">
<rect width="176" height="32" fill="white" transform="translate(0 0.400391)"/>
</clipPath>
</defs>
</svg>
