<svg width="255" height="26" viewBox="0 0 255 26" fill="none" xmlns="http://www.w3.org/2000/svg">
<path d="M70.0077 20.486L75.8226 24.1781C76.5725 24.6511 77.4956 23.9473 77.2763 23.082L75.5919 16.4594C75.5463 16.2758 75.5535 16.0831 75.6127 15.9035C75.6719 15.7239 75.7807 15.5646 75.9264 15.4441L81.1414 11.0944C81.8222 10.5291 81.476 9.38685 80.5876 9.32916L73.7804 8.89074C73.5947 8.87993 73.4161 8.81525 73.2666 8.70461C73.117 8.59397 73.0029 8.44215 72.9382 8.26771L70.3999 1.87588C70.3327 1.69116 70.2103 1.5316 70.0493 1.41884C69.8883 1.30609 69.6966 1.24561 69.5 1.24561C69.3034 1.24561 69.1117 1.30609 68.9507 1.41884C68.7897 1.5316 68.6673 1.69116 68.6001 1.87588L66.0618 8.26771C65.9971 8.44215 65.883 8.59397 65.7334 8.70461C65.5839 8.81525 65.4053 8.87993 65.2196 8.89074L58.4124 9.32916C57.524 9.38685 57.1778 10.5291 57.8586 11.0944L63.0736 15.4441C63.2193 15.5646 63.3281 15.7239 63.3873 15.9035C63.4465 16.0831 63.4537 16.2758 63.4081 16.4594L61.8506 22.5974C61.5852 23.6358 62.6928 24.478 63.5812 23.9127L68.9923 20.486C69.1441 20.3895 69.3202 20.3383 69.5 20.3383C69.6798 20.3383 69.8559 20.3895 70.0077 20.486Z" fill="#F8D57E" stroke="#F8D57E" stroke-width="2" stroke-linecap="round" stroke-linejoin="round"/>
<path d="M99.0077 20.486L104.823 24.1781C105.573 24.6511 106.496 23.9473 106.276 23.082L104.592 16.4594C104.546 16.2758 104.554 16.0831 104.613 15.9035C104.672 15.7239 104.781 15.5646 104.926 15.4441L110.141 11.0944C110.822 10.5291 110.476 9.38685 109.588 9.32916L102.78 8.89074C102.595 8.87993 102.416 8.81525 102.267 8.70461C102.117 8.59397 102.003 8.44215 101.938 8.26771L99.3999 1.87588C99.3327 1.69116 99.2103 1.5316 99.0493 1.41884C98.8883 1.30609 98.6966 1.24561 98.5 1.24561C98.3034 1.24561 98.1117 1.30609 97.9507 1.41884C97.7897 1.5316 97.6673 1.69116 97.6001 1.87588L95.0618 8.26771C94.9971 8.44215 94.883 8.59397 94.7334 8.70461C94.5839 8.81525 94.4053 8.87993 94.2196 8.89074L87.4124 9.32916C86.524 9.38685 86.1778 10.5291 86.8586 11.0944L92.0736 15.4441C92.2193 15.5646 92.3281 15.7239 92.3873 15.9035C92.4465 16.0831 92.4537 16.2758 92.4081 16.4594L90.8506 22.5974C90.5852 23.6358 91.6928 24.478 92.5812 23.9127L97.9923 20.486C98.1441 20.3895 98.3202 20.3383 98.5 20.3383C98.6798 20.3383 98.8559 20.3895 99.0077 20.486Z" fill="#F8D57E" stroke="#F8D57E" stroke-width="2" stroke-linecap="round" stroke-linejoin="round"/>
<path d="M128.008 20.486L133.823 24.1781C134.573 24.6511 135.496 23.9473 135.276 23.082L133.592 16.4594C133.546 16.2758 133.554 16.0831 133.613 15.9035C133.672 15.7239 133.781 15.5646 133.926 15.4441L139.141 11.0944C139.822 10.5291 139.476 9.38685 138.588 9.32916L131.78 8.89074C131.595 8.87993 131.416 8.81525 131.267 8.70461C131.117 8.59397 131.003 8.44215 130.938 8.26771L128.4 1.87588C128.333 1.69116 128.21 1.5316 128.049 1.41884C127.888 1.30609 127.697 1.24561 127.5 1.24561C127.303 1.24561 127.112 1.30609 126.951 1.41884C126.79 1.5316 126.667 1.69116 126.6 1.87588L124.062 8.26771C123.997 8.44215 123.883 8.59397 123.733 8.70461C123.584 8.81525 123.405 8.87993 123.22 8.89074L116.412 9.32916C115.524 9.38685 115.178 10.5291 115.859 11.0944L121.074 15.4441C121.219 15.5646 121.328 15.7239 121.387 15.9035C121.446 16.0831 121.454 16.2758 121.408 16.4594L119.851 22.5974C119.585 23.6358 120.693 24.478 121.581 23.9127L126.992 20.486C127.144 20.3895 127.32 20.3383 127.5 20.3383C127.68 20.3383 127.856 20.3895 128.008 20.486Z" fill="#F8D57E" stroke="#F8D57E" stroke-width="2" stroke-linecap="round" stroke-linejoin="round"/>
<path d="M157.008 20.486L162.823 24.1781C163.573 24.6511 164.496 23.9473 164.276 23.082L162.592 16.4594C162.546 16.2758 162.554 16.0831 162.613 15.9035C162.672 15.7239 162.781 15.5646 162.926 15.4441L168.141 11.0944C168.822 10.5291 168.476 9.38685 167.588 9.32916L160.78 8.89074C160.595 8.87993 160.416 8.81525 160.267 8.70461C160.117 8.59397 160.003 8.44215 159.938 8.26771L157.4 1.87588C157.333 1.69116 157.21 1.5316 157.049 1.41884C156.888 1.30609 156.697 1.24561 156.5 1.24561C156.303 1.24561 156.112 1.30609 155.951 1.41884C155.79 1.5316 155.667 1.69116 155.6 1.87588L153.062 8.26771C152.997 8.44215 152.883 8.59397 152.733 8.70461C152.584 8.81525 152.405 8.87993 152.22 8.89074L145.412 9.32916C144.524 9.38685 144.178 10.5291 144.859 11.0944L150.074 15.4441C150.219 15.5646 150.328 15.7239 150.387 15.9035C150.446 16.0831 150.454 16.2758 150.408 16.4594L148.851 22.5974C148.585 23.6358 149.693 24.478 150.581 23.9127L155.992 20.486C156.144 20.3895 156.32 20.3383 156.5 20.3383C156.68 20.3383 156.856 20.3895 157.008 20.486Z" fill="#F8D57E" stroke="#F8D57E" stroke-width="2" stroke-linecap="round" stroke-linejoin="round"/>
<path d="M186.008 20.486L191.823 24.1781C192.573 24.6511 193.496 23.9473 193.276 23.082L191.592 16.4594C191.546 16.2758 191.554 16.0831 191.613 15.9035C191.672 15.7239 191.781 15.5646 191.926 15.4441L197.141 11.0944C197.822 10.5291 197.476 9.38685 196.588 9.32916L189.78 8.89074C189.595 8.87993 189.416 8.81525 189.267 8.70461C189.117 8.59397 189.003 8.44215 188.938 8.26771L186.4 1.87588C186.333 1.69116 186.21 1.5316 186.049 1.41884C185.888 1.30609 185.697 1.24561 185.5 1.24561C185.303 1.24561 185.112 1.30609 184.951 1.41884C184.79 1.5316 184.667 1.69116 184.6 1.87588L182.062 8.26771C181.997 8.44215 181.883 8.59397 181.733 8.70461C181.584 8.81525 181.405 8.87993 181.22 8.89074L174.412 9.32916C173.524 9.38685 173.178 10.5291 173.859 11.0944L179.074 15.4441C179.219 15.5646 179.328 15.7239 179.387 15.9035C179.446 16.0831 179.454 16.2758 179.408 16.4594L177.851 22.5974C177.585 23.6358 178.693 24.478 179.581 23.9127L184.992 20.486C185.144 20.3895 185.32 20.3383 185.5 20.3383C185.68 20.3383 185.856 20.3895 186.008 20.486Z" fill="#F8D57E" stroke="#F8D57E" stroke-width="2" stroke-linecap="round" stroke-linejoin="round"/>
</svg>
